<svg xmlns="http://www.w3.org/2000/svg" viewBox="0 0 1100 740" width="1100" height="740">
  <defs>
    <style>text { font-family:'Inter','Segoe UI',system-ui,sans-serif; }</style>
    <linearGradient id="bg" x1="0%" y1="0%" x2="100%" y2="100%">
      <stop offset="0%" stop-color="#020B18"/><stop offset="100%" stop-color="#030E1F"/>
    </linearGradient>
    <linearGradient id="hl" x1="0%" y1="0%" x2="100%" y2="0%">
      <stop offset="0%" stop-color="#0094C6"/><stop offset="50%" stop-color="#00C6B8"/><stop offset="100%" stop-color="#00D4FF"/>
    </linearGradient>
    <linearGradient id="hlV" x1="0%" y1="0%" x2="0%" y2="100%">
      <stop offset="0%" stop-color="#0094C6"/><stop offset="100%" stop-color="#00D4FF"/>
    </linearGradient>
    <!-- arrow markers -->
    <marker id="aC" markerWidth="7" markerHeight="7" refX="5" refY="3" orient="auto"><path d="M0,0 L0,6 L7,3z" fill="#0094C6"/></marker>
    <marker id="aT" markerWidth="7" markerHeight="7" refX="5" refY="3" orient="auto"><path d="M0,0 L0,6 L7,3z" fill="#00C6B8"/></marker>
    <marker id="aD" markerWidth="7" markerHeight="7" refX="5" refY="3" orient="auto"><path d="M0,0 L0,6 L7,3z" fill="#00D4FF"/></marker>
    <marker id="aG" markerWidth="7" markerHeight="7" refX="5" refY="3" orient="auto"><path d="M0,0 L0,6 L7,3z" fill="#2A4466"/></marker>
    <marker id="aY" markerWidth="7" markerHeight="7" refX="5" refY="3" orient="auto"><path d="M0,0 L0,6 L7,3z" fill="#FFB347"/></marker>
    <filter id="sh"><feDropShadow dx="0" dy="3" stdDeviation="5" flood-color="#000" flood-opacity="0.45"/></filter>
    <pattern id="dots" width="20" height="20" patternUnits="userSpaceOnUse">
      <circle cx="10" cy="10" r="0.6" fill="#0A1628"/>
    </pattern>
  </defs>

  <!-- BG -->
  <rect width="1100" height="740" fill="url(#bg)"/>
  <rect width="1100" height="740" fill="url(#dots)" opacity="0.9"/>
  <rect width="1100" height="4" fill="url(#hl)"/>

  <!-- TITLE -->
  <text x="550" y="38" text-anchor="middle" fill="#E8F4FD" font-size="19" font-weight="700" letter-spacing="-0.3">AlgoFloat — System Architecture</text>
  <text x="550" y="57" text-anchor="middle" fill="#4A6888" font-size="10" letter-spacing="1.2">THREE-TIER WEB APPLICATION  ·  DATA FLOW OVERVIEW</text>

  <!-- ═══════════════════════════════════════
       TIER LABELS (left spine)
  ═══════════════════════════════════════ -->
  <!-- T1 label -->
  <line x1="36" y1="78" x2="36" y2="230" stroke="#0094C6" stroke-width="2.5" stroke-linecap="round"/>
  <text x="46" y="126" fill="#0094C6" font-size="8" font-weight="700" letter-spacing="1.4">PRESENTATION</text>
  <text x="46" y="137" fill="#0094C6" font-size="8" font-weight="700" letter-spacing="1.4">LAYER</text>

  <!-- T2 label -->
  <line x1="36" y1="250" x2="36" y2="450" stroke="#00C6B8" stroke-width="2.5" stroke-linecap="round"/>
  <text x="46" y="343" fill="#00C6B8" font-size="8" font-weight="700" letter-spacing="1.4">APPLICATION</text>
  <text x="46" y="354" fill="#00C6B8" font-size="8" font-weight="700" letter-spacing="1.4">LAYER</text>

  <!-- T3 label -->
  <line x1="36" y1="470" x2="36" y2="610" stroke="#00D4FF" stroke-width="2.5" stroke-linecap="round"/>
  <text x="46" y="537" fill="#00D4FF" font-size="8" font-weight="700" letter-spacing="1.4">DATA</text>
  <text x="46" y="548" fill="#00D4FF" font-size="8" font-weight="700" letter-spacing="1.4">LAYER</text>

  <!-- ═══════════════════════════════════════
       TIER 1: PRESENTATION  (y 78–240)
  ═══════════════════════════════════════ -->
  <rect x="100" y="78" width="720" height="155" rx="12" fill="#0A1E35" stroke="#1A3355" stroke-width="1" filter="url(#sh)"/>
  <rect x="100" y="78" width="720" height="3" rx="2" fill="url(#hl)"/>

  <!-- User -->
  <rect x="120" y="100" width="130" height="112" rx="10" fill="#0D2240" stroke="#1A3355" stroke-width="1"/>
  <circle cx="185" cy="126" r="14" fill="rgba(0,148,198,0.12)" stroke="#0094C6" stroke-width="1.2"/>
  <circle cx="185" cy="121" r="5" fill="none" stroke="#0094C6" stroke-width="1.4"/>
  <path d="M175 138 Q185 132 195 138" fill="none" stroke="#0094C6" stroke-width="1.4" stroke-linecap="round"/>
  <text x="185" y="154" text-anchor="middle" fill="#E8F4FD" font-size="10" font-weight="600">End User</text>
  <text x="185" y="168" text-anchor="middle" fill="#4A6888" font-size="8.5">Web browser</text>
  <text x="185" y="180" text-anchor="middle" fill="#4A6888" font-size="8.5">Types NL questions</text>
  <text x="185" y="192" text-anchor="middle" fill="#4A6888" font-size="8.5">Views charts + maps</text>

  <!-- React SPA -->
  <rect x="278" y="100" width="198" height="112" rx="10" fill="#0D2240" stroke="#0094C6" stroke-width="1.5"/>
  <rect x="278" y="100" width="198" height="3" rx="2" fill="url(#hl)"/>
  <text x="377" y="120" text-anchor="middle" fill="#00D4FF" font-size="11" font-weight="700">React SPA</text>
  <line x1="296" y1="125" x2="458" y2="125" stroke="#1A3355" stroke-width="0.8"/>
  <text x="340" y="141" fill="#8FACC8" font-size="8.5">• Home / Overview</text>
  <text x="340" y="154" fill="#8FACC8" font-size="8.5">• Float Map (Leaflet)</text>
  <text x="340" y="167" fill="#8FACC8" font-size="8.5">• Trends &amp; Charts</text>
  <text x="340" y="180" fill="#8FACC8" font-size="8.5">• AI Chatbot UI</text>
  <rect x="294" y="192" width="50" height="13" rx="3" fill="rgba(0,148,198,0.10)" stroke="rgba(0,148,198,0.2)" stroke-width="1"/>
  <text x="319" y="201" text-anchor="middle" fill="#7ECEF4" font-size="7.5">React 18</text>
  <rect x="350" y="192" width="38" height="13" rx="3" fill="rgba(0,198,184,0.10)" stroke="rgba(0,198,184,0.2)" stroke-width="1"/>
  <text x="369" y="201" text-anchor="middle" fill="#00C6B8" font-size="7.5">Vite 5</text>
  <rect x="394" y="192" width="50" height="13" rx="3" fill="rgba(0,212,255,0.08)" stroke="rgba(0,212,255,0.18)" stroke-width="1"/>
  <text x="419" y="201" text-anchor="middle" fill="#00D4FF" font-size="7.5">Plotly.js</text>

  <!-- HTTP Client (Axios) -->
  <rect x="504" y="100" width="150" height="112" rx="10" fill="#0D2240" stroke="#1A3355" stroke-width="1"/>
  <text x="579" y="120" text-anchor="middle" fill="#8FACC8" font-size="10" font-weight="600">HTTP Client</text>
  <line x1="520" y1="125" x2="638" y2="125" stroke="#1A3355" stroke-width="0.8"/>
  <text x="579" y="142" text-anchor="middle" fill="#4A6888" font-size="8.5">Axios · REST calls</text>
  <text x="579" y="156" text-anchor="middle" fill="#4A6888" font-size="8.5">JSON request/response</text>
  <text x="579" y="170" text-anchor="middle" fill="#4A6888" font-size="8.5">Vite proxy</text>
  <text x="579" y="184" text-anchor="middle" fill="#4A6888" font-size="8.5">:5173 → :8000</text>

  <!-- Leaflet Map -->
  <rect x="680" y="100" width="120" height="112" rx="10" fill="#0D2240" stroke="#1A3355" stroke-width="1"/>
  <text x="740" y="120" text-anchor="middle" fill="#8FACC8" font-size="10" font-weight="600">Map Renderer</text>
  <line x1="696" y1="125" x2="784" y2="125" stroke="#1A3355" stroke-width="0.8"/>
  <text x="740" y="142" text-anchor="middle" fill="#4A6888" font-size="8.5">react-leaflet v4</text>
  <text x="740" y="156" text-anchor="middle" fill="#4A6888" font-size="8.5">CartoDB Dark tiles</text>
  <text x="740" y="170" text-anchor="middle" fill="#4A6888" font-size="8.5">CircleMarker per</text>
  <text x="740" y="184" text-anchor="middle" fill="#4A6888" font-size="8.5">observation</text>

  <!-- T1 internal arrows -->
  <line x1="250" y1="156" x2="276" y2="156" stroke="#0094C6" stroke-width="1.5" marker-end="url(#aC)"/>
  <line x1="476" y1="156" x2="502" y2="156" stroke="#1A3355" stroke-width="1" stroke-dasharray="3,2" marker-end="url(#aG)"/>
  <line x1="654" y1="156" x2="678" y2="156" stroke="#1A3355" stroke-width="1" stroke-dasharray="3,2" marker-end="url(#aG)"/>


  <!-- ═══════════════════════════════════════
       DOWN ARROW T1 → T2
  ═══════════════════════════════════════ -->
  <line x1="579" y1="212" x2="579" y2="248" stroke="#0094C6" stroke-width="1.8" marker-end="url(#aC)"/>
  <!-- Return arrow -->
  <line x1="555" y1="248" x2="555" y2="212" stroke="#00C6B8" stroke-width="1.2" stroke-dasharray="4,3" marker-end="url(#aT)"/>
  <rect x="486" y="224" width="32" height="12" rx="3" fill="#020B18"/>
  <text x="502" y="233" text-anchor="middle" fill="#0094C6" font-size="7.5">POST /chat</text>
  <rect x="524" y="224" width="24" height="12" rx="3" fill="#020B18"/>
  <text x="536" y="233" text-anchor="middle" fill="#00C6B8" font-size="7.5">JSON</text>

  <line x1="377" y1="212" x2="377" y2="248" stroke="#0094C6" stroke-width="1.4" stroke-dasharray="4,3" marker-end="url(#aC)"/>
  <rect x="338" y="224" width="36" height="12" rx="3" fill="#020B18"/>
  <text x="356" y="233" text-anchor="middle" fill="#0094C6" font-size="7.5">GET /api/*</text>


  <!-- ═══════════════════════════════════════
       TIER 2: APPLICATION  (y 250–445)
  ═══════════════════════════════════════ -->
  <rect x="100" y="250" width="720" height="190" rx="12" fill="#071525" stroke="#1A3355" stroke-width="1" filter="url(#sh)"/>
  <rect x="100" y="250" width="720" height="3" rx="2" fill="url(#hl)"/>

  <!-- REST API Server -->
  <rect x="120" y="272" width="180" height="148" rx="10" fill="#0D2240" stroke="#00C6B8" stroke-width="1.5"/>
  <rect x="120" y="272" width="180" height="3" rx="2" fill="url(#hlV)"/>
  <text x="210" y="292" text-anchor="middle" fill="#00C6B8" font-size="10.5" font-weight="700">REST API Server</text>
  <line x1="138" y1="297" x2="282" y2="297" stroke="#1A3355" stroke-width="0.8"/>
  <!-- endpoint list -->
  <text x="147" y="314" fill="#44A5E0" font-size="8" font-family="monospace">GET</text>  <text x="173" y="314" fill="#8FACC8" font-size="8">/api/overview</text>
  <text x="147" y="328" fill="#44A5E0" font-size="8" font-family="monospace">GET</text>  <text x="173" y="328" fill="#8FACC8" font-size="8">/api/map</text>
  <text x="147" y="342" fill="#44A5E0" font-size="8" font-family="monospace">GET</text>  <text x="173" y="342" fill="#8FACC8" font-size="8">/api/trends</text>
  <text x="147" y="356" fill="#00C6B8" font-size="8" font-weight="700" font-family="monospace">POST</text>  <text x="180" y="356" fill="#00C6B8" font-size="8" font-weight="600">/api/chat</text>
  <text x="147" y="370" fill="#44A5E0" font-size="8" font-family="monospace">GET</text>  <text x="173" y="370" fill="#8FACC8" font-size="8">/api/health</text>
  <rect x="136" y="384" width="54" height="13" rx="3" fill="rgba(0,198,184,0.10)" stroke="rgba(0,198,184,0.2)" stroke-width="1"/>
  <text x="163" y="393" text-anchor="middle" fill="#00C6B8" font-size="7.5">FastAPI</text>
  <rect x="196" y="384" width="52" height="13" rx="3" fill="rgba(0,148,198,0.10)" stroke="rgba(0,148,198,0.2)" stroke-width="1"/>
  <text x="222" y="393" text-anchor="middle" fill="#7ECEF4" font-size="7.5">Uvicorn</text>
  <rect x="136" y="400" width="112" height="13" rx="3" fill="rgba(0,148,198,0.06)" stroke="rgba(0,148,198,0.15)" stroke-width="1"/>
  <text x="192" y="409" text-anchor="middle" fill="#4A6888" font-size="7.5">CORS · JSON serialiser</text>

  <!-- NL→SQL Processor (chat only path) -->
  <rect x="328" y="272" width="186" height="148" rx="10" fill="#0D2240" stroke="#1A3355" stroke-width="1"/>
  <text x="421" y="292" text-anchor="middle" fill="#8FACC8" font-size="10" font-weight="600">NL → SQL Processor</text>
  <text x="421" y="303" text-anchor="middle" fill="#4A6888" font-size="8">(chatbot path only)</text>
  <line x1="344" y1="308" x2="498" y2="308" stroke="#1A3355" stroke-width="0.8"/>
  <text x="421" y="323" text-anchor="middle" fill="#4A6888" font-size="8.5">1. Inject system prompt</text>
  <text x="421" y="337" text-anchor="middle" fill="#4A6888" font-size="8.5">2. Send to AI service →</text>
  <text x="421" y="351" text-anchor="middle" fill="#4A6888" font-size="8.5">3. Receive SQL string</text>
  <text x="421" y="365" text-anchor="middle" fill="#4A6888" font-size="8.5">4. Strip markdown fences</text>
  <text x="421" y="379" text-anchor="middle" fill="#4A6888" font-size="8.5">5. Validate SELECT-only</text>
  <text x="421" y="393" text-anchor="middle" fill="#4A6888" font-size="8.5">6. Execute on SQLite</text>

  <!-- Query Engine (all paths) -->
  <rect x="542" y="272" width="158" height="148" rx="10" fill="#0D2240" stroke="#1A3355" stroke-width="1"/>
  <text x="621" y="292" text-anchor="middle" fill="#8FACC8" font-size="10" font-weight="600">Query Engine</text>
  <text x="621" y="303" text-anchor="middle" fill="#4A6888" font-size="8">(all API paths)</text>
  <line x1="558" y1="308" x2="684" y2="308" stroke="#1A3355" stroke-width="0.8"/>
  <text x="621" y="323" text-anchor="middle" fill="#4A6888" font-size="8.5">Pandas read_csv()</text>
  <text x="621" y="337" text-anchor="middle" fill="#4A6888" font-size="8.5">SQLite run_query()</text>
  <text x="621" y="351" text-anchor="middle" fill="#4A6888" font-size="8.5">DataFrame → JSON</text>
  <text x="621" y="365" text-anchor="middle" fill="#4A6888" font-size="8.5">NaN → null cleaning</text>
  <text x="621" y="379" text-anchor="middle" fill="#4A6888" font-size="8.5">100 row cap (chat)</text>
  <text x="621" y="393" text-anchor="middle" fill="#4A6888" font-size="8.5">Full data (map/trends)</text>

  <!-- T2 internal arrows -->
  <line x1="300" y1="346" x2="326" y2="346" stroke="#1A3355" stroke-width="1" stroke-dasharray="3,2" marker-end="url(#aG)"/>
  <line x1="514" y1="346" x2="540" y2="346" stroke="#1A3355" stroke-width="1" stroke-dasharray="3,2" marker-end="url(#aG)"/>


  <!-- ═══════════════════════════════════════
       DOWN ARROW T2 → T3
  ═══════════════════════════════════════ -->
  <line x1="621" y1="420" x2="621" y2="468" stroke="#00D4FF" stroke-width="1.8" marker-end="url(#aD)"/>
  <rect x="579" y="436" width="36" height="12" rx="3" fill="#020B18"/>
  <text x="597" y="445" text-anchor="middle" fill="#00D4FF" font-size="7.5">SQL query</text>

  <line x1="210" y1="420" x2="210" y2="468" stroke="#00D4FF" stroke-width="1.4" stroke-dasharray="4,3" marker-end="url(#aD)"/>
  <rect x="168" y="436" width="36" height="12" rx="3" fill="#020B18"/>
  <text x="186" y="445" text-anchor="middle" fill="#00D4FF" font-size="7.5">CSV / SQL</text>


  <!-- ═══════════════════════════════════════
       TIER 3: DATA  (y 470–605)
  ═══════════════════════════════════════ -->
  <rect x="100" y="470" width="720" height="132" rx="12" fill="#050E1C" stroke="#1A3355" stroke-width="1" filter="url(#sh)"/>
  <rect x="100" y="470" width="720" height="3" rx="2" fill="url(#hl)"/>

  <!-- SQLite DB -->
  <rect x="120" y="492" width="200" height="92" rx="10" fill="#0D2240" stroke="#0094C6" stroke-width="1.5"/>
  <text x="220" y="512" text-anchor="middle" fill="#0094C6" font-size="11" font-weight="700">SQLite Database</text>
  <line x1="138" y1="517" x2="302" y2="517" stroke="#1A3355" stroke-width="0.8"/>
  <text x="220" y="532" text-anchor="middle" fill="#8FACC8" font-size="9">TABLE: argo_profiles</text>
  <text x="220" y="546" text-anchor="middle" fill="#4A6888" font-size="8.5">~3,500 rows · 19 columns</text>
  <!-- key columns inline -->
  <rect x="138" y="556" width="30" height="12" rx="3" fill="rgba(0,212,255,0.10)" stroke="rgba(0,212,255,0.2)" stroke-width="1"/>
  <text x="153" y="565" text-anchor="middle" fill="#00D4FF" font-size="7">TEMP</text>
  <rect x="174" y="556" width="30" height="12" rx="3" fill="rgba(0,148,198,0.10)" stroke="rgba(0,148,198,0.2)" stroke-width="1"/>
  <text x="189" y="565" text-anchor="middle" fill="#7ECEF4" font-size="7">PSAL</text>
  <rect x="210" y="556" width="30" height="12" rx="3" fill="rgba(0,198,184,0.10)" stroke="rgba(0,198,184,0.2)" stroke-width="1"/>
  <text x="225" y="565" text-anchor="middle" fill="#00C6B8" font-size="7">PRES</text>
  <rect x="246" y="556" width="50" height="12" rx="3" fill="rgba(78,205,196,0.10)" stroke="rgba(78,205,196,0.2)" stroke-width="1"/>
  <text x="271" y="565" text-anchor="middle" fill="#4ECDC4" font-size="7">LAT / LON</text>

  <!-- CSV Source -->
  <rect x="352" y="492" width="180" height="92" rx="10" fill="#0D2240" stroke="#1A3355" stroke-width="1"/>
  <text x="442" y="512" text-anchor="middle" fill="#8FACC8" font-size="10" font-weight="600">CSV Source</text>
  <line x1="368" y1="517" x2="516" y2="517" stroke="#1A3355" stroke-width="0.8"/>
  <text x="442" y="532" text-anchor="middle" fill="#4A6888" font-size="8.5">sample_argo.csv</text>
  <text x="442" y="546" text-anchor="middle" fill="#4A6888" font-size="8.5">ARGO Global Float Array</text>
  <text x="442" y="560" text-anchor="middle" fill="#4A6888" font-size="8.5">Loaded into SQLite on</text>
  <text x="442" y="572" text-anchor="middle" fill="#4A6888" font-size="8.5">first run (if DB absent)</text>

  <!-- App Config -->
  <rect x="564" y="492" width="234" height="92" rx="10" fill="#0D2240" stroke="#FFB347" stroke-width="1"/>
  <text x="681" y="512" text-anchor="middle" fill="#FFB347" font-size="10" font-weight="600">Application Config</text>
  <line x1="580" y1="517" x2="782" y2="517" stroke="#1A3355" stroke-width="0.8"/>
  <text x="681" y="533" text-anchor="middle" fill="#4A6888" font-size="8.5">.env  (not committed to git)</text>
  <rect x="596" y="542" width="170" height="13" rx="3" fill="#060F1E" stroke="#1A3355" stroke-width="1"/>
  <text x="681" y="552" text-anchor="middle" fill="#FFB347" font-size="7.5" font-family="monospace">AI_SERVICE_API_KEY=…</text>
  <text x="681" y="567" text-anchor="middle" fill="#4A6888" font-size="8.5">python-dotenv · shared by</text>
  <text x="681" y="578" text-anchor="middle" fill="#4A6888" font-size="8.5">dashboard + backend</text>

  <!-- CSV → DB init arrow -->
  <line x1="352" y1="538" x2="322" y2="538" stroke="#2A4466" stroke-width="1" stroke-dasharray="3,2" marker-end="url(#aG)"/>
  <rect x="322" y="530" width="28" height="12" rx="3" fill="#020B18"/>
  <text x="336" y="539" text-anchor="middle" fill="#4A6888" font-size="7">init</text>


  <!-- ═══════════════════════════════════════
       EXTERNAL SERVICES (right column)
  ═══════════════════════════════════════ -->
  <rect x="848" y="78" width="220" height="524" rx="12" fill="#050E1C" stroke="#00C6B8" stroke-width="1.5" filter="url(#sh)" stroke-dasharray="6,3"/>
  <rect x="848" y="78" width="220" height="3" rx="2" fill="url(#hl)"/>
  <text x="958" y="100" text-anchor="middle" fill="#00C6B8" font-size="9" font-weight="700" letter-spacing="1.4">EXTERNAL SERVICE</text>
  <line x1="866" y1="106" x2="1050" y2="106" stroke="#1A3355" stroke-width="0.8"/>

  <!-- AI LLM Box -->
  <rect x="866" y="116" width="184" height="178" rx="10" fill="#0D2240" stroke="#00C6B8" stroke-width="1.5"/>
  <text x="958" y="136" text-anchor="middle" fill="#00C6B8" font-size="11" font-weight="700">AI Language Model</text>
  <line x1="882" y1="141" x2="1034" y2="141" stroke="#1A3355" stroke-width="0.8"/>
  <text x="958" y="158" text-anchor="middle" fill="#4A6888" font-size="8.5">Text completion API</text>
  <text x="958" y="172" text-anchor="middle" fill="#4A6888" font-size="8.5">google-genai SDK</text>
  <text x="958" y="187" text-anchor="middle" fill="#4A6888" font-size="8.5">Called only on /api/chat</text>
  <line x1="882" y1="196" x2="1034" y2="196" stroke="#1A3355" stroke-width="0.8"/>
  <!-- How it works -->
  <text x="882" y="212" fill="#4A6888" font-size="8.5" font-weight="600">Prompt structure:</text>
  <text x="882" y="225" fill="#4A6888" font-size="8.5">System: table schema + rules</text>
  <text x="882" y="238" fill="#4A6888" font-size="8.5">User: plain-English question</text>
  <text x="882" y="252" fill="#4A6888" font-size="8.5">Response: raw SQL string</text>
  <rect x="882" y="262" width="168" height="24" rx="5" fill="rgba(0,198,184,0.08)" stroke="rgba(0,198,184,0.2)" stroke-width="1"/>
  <text x="966" y="278" text-anchor="middle" fill="#00C6B8" font-size="8.5">SELECT-only · no DDL/DML</text>

  <!-- Map tiles Box -->
  <rect x="866" y="314" width="184" height="100" rx="10" fill="#0D2240" stroke="#1A3355" stroke-width="1"/>
  <text x="958" y="334" text-anchor="middle" fill="#8FACC8" font-size="10" font-weight="600">Map Tile Server</text>
  <line x1="882" y1="339" x2="1034" y2="339" stroke="#1A3355" stroke-width="0.8"/>
  <text x="958" y="355" text-anchor="middle" fill="#4A6888" font-size="8.5">CARTO Dark Matter</text>
  <text x="958" y="369" text-anchor="middle" fill="#4A6888" font-size="8.5">OpenStreetMap tiles</text>
  <text x="958" y="383" text-anchor="middle" fill="#4A6888" font-size="8.5">Free · no API key needed</text>
  <text x="958" y="397" text-anchor="middle" fill="#4A6888" font-size="8.5">HTTPS · browser fetches</text>

  <!-- Google Fonts Box -->
  <rect x="866" y="434" width="184" height="80" rx="10" fill="#0D2240" stroke="#1A3355" stroke-width="1"/>
  <text x="958" y="454" text-anchor="middle" fill="#8FACC8" font-size="10" font-weight="600">Web Fonts</text>
  <line x1="882" y1="459" x2="1034" y2="459" stroke="#1A3355" stroke-width="0.8"/>
  <text x="958" y="475" text-anchor="middle" fill="#4A6888" font-size="8.5">Inter + JetBrains Mono</text>
  <text x="958" y="489" text-anchor="middle" fill="#4A6888" font-size="8.5">Google Fonts CDN</text>
  <text x="958" y="503" text-anchor="middle" fill="#4A6888" font-size="8.5">Loaded by browser</text>

  <!-- ─── Arrows: T2 NL→SQL → AI LLM ─── -->
  <line x1="830" y1="346" x2="864" y2="220" stroke="#00C6B8" stroke-width="1.5" stroke-dasharray="5,3" marker-end="url(#aT)"/>
  <rect x="826" y="285" width="34" height="11" rx="3" fill="#020B18"/>
  <text x="843" y="293" text-anchor="middle" fill="#00C6B8" font-size="7.5">prompt</text>
  <!-- Return arrow -->
  <line x1="866" y1="240" x2="832" y2="366" stroke="#00C6B8" stroke-width="1" stroke-dasharray="3,2" marker-end="url(#aT)"/>
  <rect x="800" y="305" width="28" height="11" rx="3" fill="#020B18"/>
  <text x="814" y="313" text-anchor="middle" fill="#00C6B8" font-size="7.5">SQL</text>

  <!-- Map tiles arrow from SPA -->
  <line x1="820" y1="156" x2="864" y2="364" stroke="#2A4466" stroke-width="1" stroke-dasharray="4,3" marker-end="url(#aG)"/>

  <!-- ═══════════════════════════════════════
       COMMAND BAR
  ═══════════════════════════════════════ -->
  <rect x="100" y="628" width="968" height="90" rx="10" fill="#060F1E" stroke="#1A3355" stroke-width="1"/>
  <line x1="100" y1="628" x2="1068" y2="628" stroke="url(#hl)" stroke-width="1.5"/>
  <text x="584" y="647" text-anchor="middle" fill="#4A6888" font-size="8" font-weight="700" letter-spacing="1">DEVELOPMENT  ·  TWO TERMINALS REQUIRED</text>

  <!-- backend cmd -->
  <rect x="118" y="656" width="240" height="50" rx="8" fill="#0A1628" stroke="#00C6B8" stroke-width="1"/>
  <text x="140" y="671" fill="#4A6888" font-size="7.5" font-weight="700">TERMINAL 1 — BACKEND</text>
  <text x="238" y="688" text-anchor="middle" fill="#00C6B8" font-size="11" font-weight="700" font-family="monospace">uv run serve</text>
  <text x="238" y="700" text-anchor="middle" fill="#4A6888" font-size="8">FastAPI + Uvicorn on port 8000</text>

  <!-- frontend cmd -->
  <rect x="386" y="656" width="280" height="50" rx="8" fill="#0A1628" stroke="#0094C6" stroke-width="1"/>
  <text x="408" y="671" fill="#4A6888" font-size="7.5" font-weight="700">TERMINAL 2 — FRONTEND</text>
  <text x="526" y="688" text-anchor="middle" fill="#00D4FF" font-size="11" font-weight="700" font-family="monospace">cd frontend &amp;&amp; npm run dev</text>
  <text x="526" y="700" text-anchor="middle" fill="#4A6888" font-size="8">Vite dev server on port 5173 · /api proxied to 8000</text>

  <!-- URLs -->
  <rect x="694" y="656" width="354" height="50" rx="8" fill="#0A1628" stroke="#1A3355" stroke-width="1"/>
  <text x="716" y="671" fill="#4A6888" font-size="7.5" font-weight="700">OPEN IN BROWSER</text>
  <text x="720" y="690" fill="#4A6888" font-size="9" font-family="monospace">http://localhost:5173</text>
  <text x="836" y="690" fill="#4A6888" font-size="8.5">→ Web App</text>
  <text x="720" y="703" fill="#4A6888" font-size="9" font-family="monospace">http://localhost:8000/docs</text>
  <text x="856" y="703" fill="#4A6888" font-size="8.5">→ API Docs</text>

</svg>
